# This file uses centimeters as units for non-parametric coordinates.

mtllib player_body.mtl
g default
v 0.000000 1.878680 2.878680
v -2.121320 1.878680 5.000000
v -0.000000 1.878680 7.121320
v 2.121320 1.878680 5.000000
v 0.000000 4.000000 2.000000
v -3.000000 4.000000 5.000000
v -0.000000 4.000000 8.000000
v 3.000000 4.000000 5.000000
v 0.000000 6.121320 2.878680
v -2.121320 6.121320 5.000000
v -0.000000 6.121320 7.121320
v 2.121320 6.121320 5.000000
v 0.000000 1.000000 5.000000
v 0.000000 7.000000 5.000000
vt 0.000000 0.250000
vt 0.250000 0.250000
vt 0.500000 0.250000
vt 0.750000 0.250000
vt 1.000000 0.250000
vt 0.000000 0.500000
vt 0.250000 0.500000
vt 0.500000 0.500000
vt 0.750000 0.500000
vt 1.000000 0.500000
vt 0.000000 0.750000
vt 0.250000 0.750000
vt 0.500000 0.750000
vt 0.750000 0.750000
vt 1.000000 0.750000
vt 0.125000 0.000000
vt 0.375000 0.000000
vt 0.625000 0.000000
vt 0.875000 0.000000
vt 0.125000 1.000000
vt 0.375000 1.000000
vt 0.625000 1.000000
vt 0.875000 1.000000
vn -0.678598 -0.281085 -0.678598
vn -0.678598 -0.281085 -0.678598
vn -0.678598 -0.281085 -0.678598
vn -0.678598 -0.281085 -0.678598
vn -0.678598 -0.281085 0.678598
vn -0.678598 -0.281085 0.678598
vn -0.678598 -0.281085 0.678598
vn -0.678598 -0.281085 0.678598
vn 0.678598 -0.281085 0.678598
vn 0.678598 -0.281085 0.678598
vn 0.678598 -0.281085 0.678598
vn 0.678598 -0.281085 0.678598
vn 0.678598 -0.281085 -0.678598
vn 0.678598 -0.281085 -0.678598
vn 0.678598 -0.281085 -0.678598
vn 0.678598 -0.281085 -0.678598
vn -0.678598 0.281085 -0.678598
vn -0.678598 0.281085 -0.678598
vn -0.678598 0.281085 -0.678598
vn -0.678598 0.281085 -0.678598
vn -0.678598 0.281085 0.678598
vn -0.678598 0.281085 0.678598
vn -0.678598 0.281085 0.678598
vn -0.678598 0.281085 0.678598
vn 0.678598 0.281085 0.678598
vn 0.678598 0.281085 0.678598
vn 0.678598 0.281085 0.678598
vn 0.678598 0.281085 0.678598
vn 0.678598 0.281085 -0.678598
vn 0.678598 0.281085 -0.678598
vn 0.678598 0.281085 -0.678598
vn 0.678598 0.281085 -0.678598
vn -0.357407 -0.862856 -0.357407
vn -0.357407 -0.862856 -0.357407
vn -0.357407 -0.862856 -0.357407
vn -0.357407 -0.862856 0.357407
vn -0.357407 -0.862856 0.357407
vn -0.357407 -0.862856 0.357407
vn 0.357407 -0.862856 0.357407
vn 0.357407 -0.862856 0.357407
vn 0.357407 -0.862856 0.357407
vn 0.357407 -0.862856 -0.357407
vn 0.357407 -0.862856 -0.357407
vn 0.357407 -0.862856 -0.357407
vn -0.357407 0.862856 -0.357407
vn -0.357407 0.862856 -0.357407
vn -0.357407 0.862856 -0.357407
vn -0.357407 0.862856 0.357407
vn -0.357407 0.862856 0.357407
vn -0.357407 0.862856 0.357407
vn 0.357407 0.862856 0.357407
vn 0.357407 0.862856 0.357407
vn 0.357407 0.862856 0.357407
vn 0.357407 0.862856 -0.357407
vn 0.357407 0.862856 -0.357407
vn 0.357407 0.862856 -0.357407
s off
g pSphere4
usemtl initialShadingGroup
f 1/1/1 2/2/2 6/7/3 5/6/4
f 2/2/5 3/3/6 7/8/7 6/7/8
f 3/3/9 4/4/10 8/9/11 7/8/12
f 4/4/13 1/5/14 5/10/15 8/9/16
f 5/6/17 6/7/18 10/12/19 9/11/20
f 6/7/21 7/8/22 11/13/23 10/12/24
f 7/8/25 8/9/26 12/14/27 11/13/28
f 8/9/29 5/10/30 9/15/31 12/14/32
f 2/2/33 1/1/34 13/16/35
f 3/3/36 2/2/37 13/17/38
f 4/4/39 3/3/40 13/18/41
f 1/5/42 4/4/43 13/19/44
f 9/11/45 10/12/46 14/20/47
f 10/12/48 11/13/49 14/21/50
f 11/13/51 12/14/52 14/22/53
f 12/14/54 9/15/55 14/23/56
g default
v 1.623588 -7.391036 -1.623588
v 0.000000 -7.391036 -2.296100
v -1.623588 -7.391036 -1.623588
v -2.296100 -7.391036 0.000000
v -1.623588 -7.391036 1.623588
v 0.000000 -7.391036 2.296101
v 1.623588 -7.391036 1.623588
v 2.296101 -7.391036 0.000000
v 3.000000 -5.656854 -3.000000
v 0.000000 -5.656854 -4.242640
v -3.000000 -5.656854 -3.000000
v -4.242640 -5.656854 0.000000
v -3.000000 -5.656854 3.000000
v 0.000000 -5.656854 4.242640
v 3.000000 -5.656854 3.000000
v 4.242641 -5.656854 0.000000
v 3.919688 -3.061467 -3.919688
v 0.000000 -3.061467 -5.543276
v -3.919688 -3.061467 -3.919688
v -5.543276 -3.061467 0.000000
v -3.919688 -3.061467 3.919688
v 0.000000 -3.061467 5.543277
v 3.919689 -3.061467 3.919689
v 5.543277 -3.061467 0.000000
v 4.242640 0.000000 -4.242640
v 0.000000 0.000000 -5.999999
v -4.242640 0.000000 -4.242640
v -5.999999 0.000000 0.000000
v -4.242640 0.000000 4.242640
v 0.000000 0.000000 6.000000
v 4.242641 0.000000 4.242641
v 6.000000 0.000000 0.000000
v 3.919688 3.061467 -3.919688
v 0.000000 3.061467 -5.543276
v -3.919688 3.061467 -3.919688
v -5.543276 3.061467 0.000000
v -3.919688 3.061467 3.919688
v 0.000000 3.061467 5.543277
v 3.919689 3.061467 3.919689
v 5.543277 3.061467 0.000000
v 3.000000 5.656854 -3.000000
v 0.000000 5.656854 -4.242640
v -3.000000 5.656854 -3.000000
v -4.242640 5.656854 0.000000
v -3.000000 5.656854 3.000000
v 0.000000 5.656854 4.242640
v 3.000000 5.656854 3.000000
v 4.242641 5.656854 0.000000
v 1.623588 7.391036 -1.623588
v 0.000000 7.391036 -2.296100
v -1.623588 7.391036 -1.623588
v -2.296100 7.391036 0.000000
v -1.623588 7.391036 1.623588
v 0.000000 7.391036 2.296101
v 1.623588 7.391036 1.623588
v 2.296101 7.391036 0.000000
v 0.000000 -8.000000 0.000000
v 0.000000 8.000000 0.000000
vt 0.000000 0.125000
vt 0.125000 0.125000
vt 0.250000 0.125000
vt 0.375000 0.125000
vt 0.500000 0.125000
vt 0.625000 0.125000
vt 0.750000 0.125000
vt 0.875000 0.125000
vt 1.000000 0.125000
vt 0.000000 0.250000
vt 0.125000 0.250000
vt 0.250000 0.250000
vt 0.375000 0.250000
vt 0.500000 0.250000
vt 0.625000 0.250000
vt 0.750000 0.250000
vt 0.875000 0.250000
vt 1.000000 0.250000
vt 0.000000 0.375000
vt 0.125000 0.375000
vt 0.250000 0.375000
vt 0.375000 0.375000
vt 0.500000 0.375000
vt 0.625000 0.375000
vt 0.750000 0.375000
vt 0.875000 0.375000
vt 1.000000 0.375000
vt 0.000000 0.500000
vt 0.125000 0.500000
vt 0.250000 0.500000
vt 0.375000 0.500000
vt 0.500000 0.500000
vt 0.625000 0.500000
vt 0.750000 0.500000
vt 0.875000 0.500000
vt 1.000000 0.500000
vt 0.000000 0.625000
vt 0.125000 0.625000
vt 0.250000 0.625000
vt 0.375000 0.625000
vt 0.500000 0.625000
vt 0.625000 0.625000
vt 0.750000 0.625000
vt 0.875000 0.625000
vt 1.000000 0.625000
vt 0.000000 0.750000
vt 0.125000 0.750000
vt 0.250000 0.750000
vt 0.375000 0.750000
vt 0.500000 0.750000
vt 0.625000 0.750000
vt 0.750000 0.750000
vt 0.875000 0.750000
vt 1.000000 0.750000
vt 0.000000 0.875000
vt 0.125000 0.875000
vt 0.250000 0.875000
vt 0.375000 0.875000
vt 0.500000 0.875000
vt 0.625000 0.875000
vt 0.750000 0.875000
vt 0.875000 0.875000
vt 1.000000 0.875000
vt 0.062500 0.000000
vt 0.187500 0.000000
vt 0.312500 0.000000
vt 0.437500 0.000000
vt 0.562500 0.000000
vt 0.687500 0.000000
vt 0.812500 0.000000
vt 0.937500 0.000000
vt 0.062500 1.000000
vt 0.187500 1.000000
vt 0.312500 1.000000
vt 0.437500 1.000000
vt 0.562500 1.000000
vt 0.687500 1.000000
vt 0.812500 1.000000
vt 0.937500 1.000000
vn 0.265637 -0.719836 -0.641306
vn 0.265637 -0.719836 -0.641306
vn 0.265637 -0.719836 -0.641306
vn 0.265637 -0.719836 -0.641305
vn -0.265637 -0.719836 -0.641306
vn -0.265637 -0.719836 -0.641306
vn -0.265637 -0.719836 -0.641306
vn -0.265637 -0.719836 -0.641306
vn -0.641306 -0.719836 -0.265637
vn -0.641306 -0.719836 -0.265637
vn -0.641306 -0.719836 -0.265637
vn -0.641306 -0.719836 -0.265637
vn -0.641306 -0.719836 0.265637
vn -0.641306 -0.719836 0.265637
vn -0.641306 -0.719836 0.265637
vn -0.641306 -0.719836 0.265637
vn -0.265637 -0.719836 0.641306
vn -0.265637 -0.719836 0.641306
vn -0.265637 -0.719836 0.641306
vn -0.265637 -0.719836 0.641306
vn 0.265637 -0.719836 0.641306
vn 0.265637 -0.719836 0.641306
vn 0.265637 -0.719836 0.641306
vn 0.265637 -0.719836 0.641306
vn 0.641306 -0.719836 0.265638
vn 0.641306 -0.719836 0.265638
vn 0.641306 -0.719836 0.265638
vn 0.641306 -0.719836 0.265638
vn 0.641306 -0.719836 -0.265637
vn 0.641306 -0.719836 -0.265637
vn 0.641306 -0.719836 -0.265637
vn 0.641306 -0.719836 -0.265637
vn 0.347269 -0.420142 -0.838382
vn 0.347269 -0.420142 -0.838382
vn 0.347269 -0.420142 -0.838382
vn 0.347269 -0.420142 -0.838382
vn -0.347269 -0.420142 -0.838382
vn -0.347269 -0.420142 -0.838382
vn -0.347269 -0.420142 -0.838382
vn -0.347269 -0.420142 -0.838382
vn -0.838382 -0.420142 -0.347269
vn -0.838382 -0.420142 -0.347269
vn -0.838382 -0.420142 -0.347269
vn -0.838382 -0.420142 -0.347269
vn -0.838382 -0.420142 0.347269
vn -0.838382 -0.420142 0.347269
vn -0.838382 -0.420142 0.347269
vn -0.838382 -0.420142 0.347269
vn -0.347269 -0.420142 0.838382
vn -0.347269 -0.420142 0.838382
vn -0.347269 -0.420142 0.838382
vn -0.347269 -0.420142 0.838382
vn 0.347269 -0.420142 0.838382
vn 0.347269 -0.420142 0.838382
vn 0.347269 -0.420142 0.838382
vn 0.347269 -0.420142 0.838382
vn 0.838382 -0.420142 0.347269
vn 0.838382 -0.420142 0.347269
vn 0.838382 -0.420142 0.347269
vn 0.838382 -0.420142 0.347269
vn 0.838382 -0.420142 -0.347269
vn 0.838382 -0.420142 -0.347269
vn 0.838382 -0.420142 -0.347269
vn 0.838382 -0.420142 -0.347269
vn 0.379100 -0.136538 -0.915227
vn 0.379100 -0.136538 -0.915227
vn 0.379100 -0.136538 -0.915227
vn 0.379100 -0.136538 -0.915227
vn -0.379100 -0.136538 -0.915227
vn -0.379100 -0.136538 -0.915227
vn -0.379100 -0.136538 -0.915227
vn -0.379100 -0.136538 -0.915227
vn -0.915227 -0.136537 -0.379100
vn -0.915227 -0.136537 -0.379100
vn -0.915227 -0.136537 -0.379100
vn -0.915227 -0.136537 -0.379100
vn -0.915227 -0.136537 0.379100
vn -0.915227 -0.136537 0.379100
vn -0.915227 -0.136537 0.379100
vn -0.915227 -0.136537 0.379100
vn -0.379100 -0.136538 0.915227
vn -0.379100 -0.136538 0.915227
vn -0.379100 -0.136538 0.915227
vn -0.379100 -0.136538 0.915227
vn 0.379099 -0.136538 0.915227
vn 0.379100 -0.136538 0.915227
vn 0.379099 -0.136538 0.915227
vn 0.379099 -0.136538 0.915227
vn 0.915227 -0.136538 0.379100
vn 0.915227 -0.136538 0.379100
vn 0.915227 -0.136538 0.379100
vn 0.915227 -0.136538 0.379100
vn 0.915227 -0.136538 -0.379100
vn 0.915227 -0.136538 -0.379100
vn 0.915227 -0.136538 -0.379100
vn 0.915227 -0.136538 -0.379100
vn 0.379100 0.136538 -0.915227
vn 0.379100 0.136538 -0.915227
vn 0.379100 0.136538 -0.915227
vn 0.379100 0.136538 -0.915227
vn -0.379100 0.136538 -0.915227
vn -0.379100 0.136538 -0.915227
vn -0.379100 0.136538 -0.915227
vn -0.379100 0.136538 -0.915227
vn -0.915227 0.136537 -0.379100
vn -0.915227 0.136537 -0.379100
vn -0.915227 0.136537 -0.379100
vn -0.915227 0.136537 -0.379100
vn -0.915227 0.136537 0.379100
vn -0.915227 0.136537 0.379100
vn -0.915227 0.136537 0.379100
vn -0.915227 0.136537 0.379100
vn -0.379100 0.136538 0.915227
vn -0.379100 0.136538 0.915227
vn -0.379100 0.136538 0.915227
vn -0.379100 0.136538 0.915227
vn 0.379099 0.136538 0.915227
vn 0.379099 0.136538 0.915227
vn 0.379100 0.136538 0.915227
vn 0.379099 0.136538 0.915227
vn 0.915227 0.136538 0.379100
vn 0.915227 0.136538 0.379100
vn 0.915227 0.136538 0.379100
vn 0.915227 0.136538 0.379100
vn 0.915227 0.136538 -0.379100
vn 0.915227 0.136538 -0.379100
vn 0.915227 0.136538 -0.379100
vn 0.915227 0.136538 -0.379100
vn 0.347269 0.420142 -0.838382
vn 0.347269 0.420142 -0.838382
vn 0.347269 0.420142 -0.838382
vn 0.347269 0.420142 -0.838382
vn -0.347269 0.420142 -0.838382
vn -0.347269 0.420142 -0.838382
vn -0.347269 0.420142 -0.838382
vn -0.347269 0.420142 -0.838382
vn -0.838382 0.420142 -0.347269
vn -0.838382 0.420142 -0.347269
vn -0.838382 0.420142 -0.347269
vn -0.838382 0.420142 -0.347269
vn -0.838382 0.420142 0.347269
vn -0.838382 0.420142 0.347269
vn -0.838382 0.420142 0.347269
vn -0.838382 0.420142 0.347269
vn -0.347269 0.420142 0.838382
vn -0.347269 0.420142 0.838382
vn -0.347269 0.420142 0.838382
vn -0.347269 0.420142 0.838382
vn 0.347269 0.420142 0.838382
vn 0.347269 0.420142 0.838382
vn 0.347269 0.420142 0.838382
vn 0.347269 0.420142 0.838382
vn 0.838382 0.420142 0.347269
vn 0.838382 0.420142 0.347269
vn 0.838382 0.420142 0.347269
vn 0.838382 0.420142 0.347269
vn 0.838382 0.420142 -0.347269
vn 0.838382 0.420142 -0.347269
vn 0.838382 0.420142 -0.347269
vn 0.838382 0.420142 -0.347269
vn 0.265637 0.719836 -0.641305
vn 0.265637 0.719836 -0.641306
vn 0.265637 0.719836 -0.641306
vn 0.265637 0.719836 -0.641306
vn -0.265637 0.719836 -0.641306
vn -0.265637 0.719836 -0.641305
vn -0.265637 0.719836 -0.641306
vn -0.265637 0.719836 -0.641306
vn -0.641306 0.719836 -0.265637
vn -0.641306 0.719836 -0.265637
vn -0.641306 0.719836 -0.265637
vn -0.641306 0.719836 -0.265637
vn -0.641306 0.719836 0.265637
vn -0.641306 0.719836 0.265637
vn -0.641306 0.719836 0.265637
vn -0.641306 0.719836 0.265637
vn -0.265637 0.719836 0.641306
vn -0.265637 0.719836 0.641306
vn -0.265637 0.719836 0.641306
vn -0.265637 0.719836 0.641306
vn 0.265637 0.719836 0.641306
vn 0.265637 0.719836 0.641306
vn 0.265637 0.719836 0.641306
vn 0.265637 0.719836 0.641306
vn 0.641306 0.719836 0.265638
vn 0.641306 0.719836 0.265638
vn 0.641306 0.719836 0.265638
vn 0.641306 0.719836 0.265638
vn 0.641306 0.719836 -0.265637
vn 0.641306 0.719836 -0.265637
vn 0.641306 0.719836 -0.265637
vn 0.641306 0.719836 -0.265637
vn 0.105592 -0.961179 -0.254921
vn 0.105592 -0.961179 -0.254921
vn 0.105592 -0.961179 -0.254921
vn -0.105592 -0.961179 -0.254921
vn -0.105592 -0.961179 -0.254921
vn -0.105592 -0.961179 -0.254921
vn -0.254921 -0.961179 -0.105592
vn -0.254921 -0.961179 -0.105592
vn -0.254921 -0.961179 -0.105592
vn -0.254921 -0.961179 0.105592
vn -0.254921 -0.961179 0.105592
vn -0.254921 -0.961179 0.105592
vn -0.105592 -0.961179 0.254921
vn -0.105592 -0.961179 0.254921
vn -0.105592 -0.961179 0.254921
vn 0.105592 -0.961179 0.254921
vn 0.105592 -0.961179 0.254921
vn 0.105592 -0.961179 0.254921
vn 0.254921 -0.961179 0.105592
vn 0.254921 -0.961179 0.105592
vn 0.254921 -0.961179 0.105592
vn 0.254921 -0.961179 -0.105592
vn 0.254921 -0.961179 -0.105592
vn 0.254921 -0.961179 -0.105592
vn 0.105592 0.961179 -0.254921
vn 0.105592 0.961179 -0.254921
vn 0.105592 0.961179 -0.254921
vn -0.105592 0.961179 -0.254921
vn -0.105592 0.961179 -0.254921
vn -0.105592 0.961179 -0.254921
vn -0.254921 0.961179 -0.105592
vn -0.254921 0.961179 -0.105592
vn -0.254921 0.961179 -0.105592
vn -0.254921 0.961179 0.105592
vn -0.254921 0.961179 0.105592
vn -0.254921 0.961179 0.105592
vn -0.105592 0.961179 0.254921
vn -0.105592 0.961179 0.254921
vn -0.105592 0.961179 0.254921
vn 0.105592 0.961179 0.254921
vn 0.105592 0.961179 0.254921
vn 0.105592 0.961179 0.254921
vn 0.254921 0.961179 0.105592
vn 0.254921 0.961179 0.105592
vn 0.254921 0.961179 0.105592
vn 0.254921 0.961179 -0.105592
vn 0.254921 0.961179 -0.105592
vn 0.254921 0.961179 -0.105592
s off
g pSphere1
usemtl initialShadingGroup
f 15/24/57 16/25/58 24/34/59 23/33/60
f 16/25/61 17/26/62 25/35/63 24/34/64
f 17/26/65 18/27/66 26/36/67 25/35/68
f 18/27/69 19/28/70 27/37/71 26/36/72
f 19/28/73 20/29/74 28/38/75 27/37/76
f 20/29/77 21/30/78 29/39/79 28/38/80
f 21/30/81 22/31/82 30/40/83 29/39/84
f 22/31/85 15/32/86 23/41/87 30/40/88
f 23/33/89 24/34/90 32/43/91 31/42/92
f 24/34/93 25/35/94 33/44/95 32/43/96
f 25/35/97 26/36/98 34/45/99 33/44/100
f 26/36/101 27/37/102 35/46/103 34/45/104
f 27/37/105 28/38/106 36/47/107 35/46/108
f 28/38/109 29/39/110 37/48/111 36/47/112
f 29/39/113 30/40/114 38/49/115 37/48/116
f 30/40/117 23/41/118 31/50/119 38/49/120
f 31/42/121 32/43/122 40/52/123 39/51/124
f 32/43/125 33/44/126 41/53/127 40/52/128
f 33/44/129 34/45/130 42/54/131 41/53/132
f 34/45/133 35/46/134 43/55/135 42/54/136
f 35/46/137 36/47/138 44/56/139 43/55/140
f 36/47/141 37/48/142 45/57/143 44/56/144
f 37/48/145 38/49/146 46/58/147 45/57/148
f 38/49/149 31/50/150 39/59/151 46/58/152
f 39/51/153 40/52/154 48/61/155 47/60/156
f 40/52/157 41/53/158 49/62/159 48/61/160
f 41/53/161 42/54/162 50/63/163 49/62/164
f 42/54/165 43/55/166 51/64/167 50/63/168
f 43/55/169 44/56/170 52/65/171 51/64/172
f 44/56/173 45/57/174 53/66/175 52/65/176
f 45/57/177 46/58/178 54/67/179 53/66/180
f 46/58/181 39/59/182 47/68/183 54/67/184
f 47/60/185 48/61/186 56/70/187 55/69/188
f 48/61/189 49/62/190 57/71/191 56/70/192
f 49/62/193 50/63/194 58/72/195 57/71/196
f 50/63/197 51/64/198 59/73/199 58/72/200
f 51/64/201 52/65/202 60/74/203 59/73/204
f 52/65/205 53/66/206 61/75/207 60/74/208
f 53/66/209 54/67/210 62/76/211 61/75/212
f 54/67/213 47/68/214 55/77/215 62/76/216
f 55/69/217 56/70/218 64/79/219 63/78/220
f 56/70/221 57/71/222 65/80/223 64/79/224
f 57/71/225 58/72/226 66/81/227 65/80/228
f 58/72/229 59/73/230 67/82/231 66/81/232
f 59/73/233 60/74/234 68/83/235 67/82/236
f 60/74/237 61/75/238 69/84/239 68/83/240
f 61/75/241 62/76/242 70/85/243 69/84/244
f 62/76/245 55/77/246 63/86/247 70/85/248
f 16/25/249 15/24/250 71/87/251
f 17/26/252 16/25/253 71/88/254
f 18/27/255 17/26/256 71/89/257
f 19/28/258 18/27/259 71/90/260
f 20/29/261 19/28/262 71/91/263
f 21/30/264 20/29/265 71/92/266
f 22/31/267 21/30/268 71/93/269
f 15/32/270 22/31/271 71/94/272
f 63/78/273 64/79/274 72/95/275
f 64/79/276 65/80/277 72/96/278
f 65/80/279 66/81/280 72/97/281
f 66/81/282 67/82/283 72/98/284
f 67/82/285 68/83/286 72/99/287
f 68/83/288 69/84/289 72/100/290
f 69/84/291 70/85/292 72/101/293
f 70/85/294 63/86/295 72/102/296
g default
v 0.000000 1.878680 -7.121320
v -2.121320 1.878680 -5.000000
v -0.000000 1.878680 -2.878680
v 2.121320 1.878680 -5.000000
v 0.000000 4.000000 -8.000000
v -3.000000 4.000000 -5.000000
v -0.000000 4.000000 -2.000000
v 3.000000 4.000000 -5.000000
v 0.000000 6.121320 -7.121320
v -2.121320 6.121320 -5.000000
v -0.000000 6.121320 -2.878680
v 2.121320 6.121320 -5.000000
v 0.000000 1.000000 -5.000000
v 0.000000 7.000000 -5.000000
vt 0.000000 0.250000
vt 0.250000 0.250000
vt 0.500000 0.250000
vt 0.750000 0.250000
vt 1.000000 0.250000
vt 0.000000 0.500000
vt 0.250000 0.500000
vt 0.500000 0.500000
vt 0.750000 0.500000
vt 1.000000 0.500000
vt 0.000000 0.750000
vt 0.250000 0.750000
vt 0.500000 0.750000
vt 0.750000 0.750000
vt 1.000000 0.750000
vt 0.125000 0.000000
vt 0.375000 0.000000
vt 0.625000 0.000000
vt 0.875000 0.000000
vt 0.125000 1.000000
vt 0.375000 1.000000
vt 0.625000 1.000000
vt 0.875000 1.000000
vn -0.678598 -0.281085 -0.678598
vn -0.678598 -0.281085 -0.678598
vn -0.678598 -0.281085 -0.678598
vn -0.678598 -0.281085 -0.678598
vn -0.678598 -0.281085 0.678598
vn -0.678598 -0.281085 0.678598
vn -0.678598 -0.281085 0.678598
vn -0.678598 -0.281085 0.678598
vn 0.678598 -0.281085 0.678598
vn 0.678598 -0.281085 0.678598
vn 0.678598 -0.281085 0.678598
vn 0.678598 -0.281085 0.678598
vn 0.678598 -0.281085 -0.678598
vn 0.678598 -0.281085 -0.678598
vn 0.678598 -0.281085 -0.678598
vn 0.678598 -0.281085 -0.678598
vn -0.678598 0.281085 -0.678598
vn -0.678598 0.281085 -0.678598
vn -0.678598 0.281085 -0.678598
vn -0.678598 0.281085 -0.678598
vn -0.678598 0.281085 0.678598
vn -0.678598 0.281085 0.678598
vn -0.678598 0.281085 0.678598
vn -0.678598 0.281085 0.678598
vn 0.678598 0.281085 0.678598
vn 0.678598 0.281085 0.678598
vn 0.678598 0.281085 0.678598
vn 0.678598 0.281085 0.678598
vn 0.678598 0.281085 -0.678598
vn 0.678598 0.281085 -0.678598
vn 0.678598 0.281085 -0.678598
vn 0.678598 0.281085 -0.678598
vn -0.357407 -0.862856 -0.357407
vn -0.357407 -0.862856 -0.357407
vn -0.357407 -0.862856 -0.357407
vn -0.357407 -0.862856 0.357407
vn -0.357407 -0.862856 0.357407
vn -0.357407 -0.862856 0.357407
vn 0.357407 -0.862856 0.357407
vn 0.357407 -0.862856 0.357407
vn 0.357407 -0.862856 0.357407
vn 0.357407 -0.862856 -0.357407
vn 0.357407 -0.862856 -0.357407
vn 0.357407 -0.862856 -0.357407
vn -0.357407 0.862856 -0.357407
vn -0.357407 0.862856 -0.357407
vn -0.357407 0.862856 -0.357407
vn -0.357407 0.862856 0.357407
vn -0.357407 0.862856 0.357407
vn -0.357407 0.862856 0.357407
vn 0.357407 0.862856 0.357407
vn 0.357407 0.862856 0.357407
vn 0.357407 0.862856 0.357407
vn 0.357407 0.862856 -0.357407
vn 0.357407 0.862856 -0.357407
vn 0.357407 0.862856 -0.357407
s off
g pSphere7
usemtl initialShadingGroup
f 73/103/297 74/104/298 78/109/299 77/108/300
f 74/104/301 75/105/302 79/110/303 78/109/304
f 75/105/305 76/106/306 80/111/307 79/110/308
f 76/106/309 73/107/310 77/112/311 80/111/312
f 77/108/313 78/109/314 82/114/315 81/113/316
f 78/109/317 79/110/318 83/115/319 82/114/320
f 79/110/321 80/111/322 84/116/323 83/115/324
f 80/111/325 77/112/326 81/117/327 84/116/328
f 74/104/329 73/103/330 85/118/331
f 75/105/332 74/104/333 85/119/334
f 76/106/335 75/105/336 85/120/337
f 73/107/338 76/106/339 85/121/340
f 81/113/341 82/114/342 86/122/343
f 82/114/344 83/115/345 86/123/346
f 83/115/347 84/116/348 86/124/349
f 84/116/350 81/117/351 86/125/352
